<mxfile host="drawio-plugin" modified="2022-05-17T14:42:55.045Z" agent="5.0 (Windows NT 6.2; Win64; x64) AppleWebKit/537.36 (KHTML, like Gecko) Chrome/97.0.4692.45 Safari/537.36" version="15.5.4" etag="wSg3mahW5vWdxLxf8yY_" type="embed"><diagram id="k07gzkI3nKEKuWw6-Y4K" name="use case diagram"><mxGraphModel dx="746" dy="743" grid="1" gridSize="10" guides="1" tooltips="1" connect="1" arrows="1" fold="1" page="1" pageScale="1" pageWidth="850" pageHeight="1100" math="0" shadow="0"><root><mxCell id="0"/><mxCell id="1" parent="0"/><mxCell id="3" value="" style="rounded=0;whiteSpace=wrap;html=1;" vertex="1" parent="1"><mxGeometry x="110" y="110" width="620" height="380" as="geometry"/></mxCell><mxCell id="12" style="rounded=0;orthogonalLoop=1;jettySize=auto;html=1;exitX=1;exitY=0.3333333333333333;exitDx=0;exitDy=0;exitPerimeter=0;entryX=0;entryY=0.5;entryDx=0;entryDy=0;endArrow=none;endFill=0;targetPerimeterSpacing=0;sourcePerimeterSpacing=0;jumpStyle=none;endSize=6;jumpSize=6;" edge="1" parent="1" source="2" target="7"><mxGeometry relative="1" as="geometry"/></mxCell><mxCell id="2" value="Actor" style="shape=umlActor;verticalLabelPosition=bottom;verticalAlign=top;html=1;outlineConnect=0;" vertex="1" parent="1"><mxGeometry x="50" y="300" width="30" height="60" as="geometry"/></mxCell><mxCell id="7" value="Загрузка модели" style="ellipse;whiteSpace=wrap;html=1;" vertex="1" parent="1"><mxGeometry x="150" y="140" width="120" height="60" as="geometry"/></mxCell><mxCell id="8" value="Просмотр модели" style="ellipse;whiteSpace=wrap;html=1;" vertex="1" parent="1"><mxGeometry x="150" y="220" width="120" height="60" as="geometry"/></mxCell><mxCell id="9" value="Работа&amp;nbsp; с камерой" style="ellipse;whiteSpace=wrap;html=1;" vertex="1" parent="1"><mxGeometry x="530" y="140" width="120" height="60" as="geometry"/></mxCell><mxCell id="14" style="rounded=0;orthogonalLoop=1;jettySize=auto;html=1;exitX=1;exitY=0.3333333333333333;exitDx=0;exitDy=0;exitPerimeter=0;entryX=0;entryY=0.5;entryDx=0;entryDy=0;endArrow=none;endFill=0;targetPerimeterSpacing=0;sourcePerimeterSpacing=0;jumpStyle=none;endSize=6;jumpSize=6;" edge="1" parent="1" source="2" target="8"><mxGeometry relative="1" as="geometry"><mxPoint x="90" y="330" as="sourcePoint"/><mxPoint x="160" y="180" as="targetPoint"/></mxGeometry></mxCell><mxCell id="16" value="Работа&amp;nbsp; с сеткой" style="ellipse;whiteSpace=wrap;html=1;" vertex="1" parent="1"><mxGeometry x="530" y="220" width="120" height="60" as="geometry"/></mxCell><mxCell id="17" value="Работа&amp;nbsp; с источниками света" style="ellipse;whiteSpace=wrap;html=1;" vertex="1" parent="1"><mxGeometry x="530" y="300" width="120" height="60" as="geometry"/></mxCell><mxCell id="18" value="Запускать фотореалистичный рендер" style="ellipse;whiteSpace=wrap;html=1;" vertex="1" parent="1"><mxGeometry x="150" y="300" width="120" height="60" as="geometry"/></mxCell><mxCell id="19" value="Редактирование модели" style="ellipse;whiteSpace=wrap;html=1;" vertex="1" parent="1"><mxGeometry x="340" y="220" width="120" height="60" as="geometry"/></mxCell><mxCell id="22" style="rounded=0;orthogonalLoop=1;jettySize=auto;html=1;entryX=0;entryY=0.5;entryDx=0;entryDy=0;endArrow=none;endFill=0;targetPerimeterSpacing=0;sourcePerimeterSpacing=0;jumpStyle=none;endSize=6;jumpSize=6;" edge="1" parent="1" target="18"><mxGeometry relative="1" as="geometry"><mxPoint x="80" y="320" as="sourcePoint"/><mxPoint x="160" y="260" as="targetPoint"/></mxGeometry></mxCell><mxCell id="23" value="Сохранение модели" style="ellipse;whiteSpace=wrap;html=1;" vertex="1" parent="1"><mxGeometry x="530" y="380" width="120" height="60" as="geometry"/></mxCell><mxCell id="24" value="Сохранение результата рендеринга" style="ellipse;whiteSpace=wrap;html=1;" vertex="1" parent="1"><mxGeometry x="340" y="380" width="120" height="60" as="geometry"/></mxCell><mxCell id="25" style="rounded=0;orthogonalLoop=1;jettySize=auto;html=1;exitX=1;exitY=0.5;exitDx=0;exitDy=0;entryX=0;entryY=0.5;entryDx=0;entryDy=0;endArrow=classic;endFill=1;targetPerimeterSpacing=0;sourcePerimeterSpacing=0;jumpStyle=none;endSize=6;jumpSize=6;dashed=1;" edge="1" parent="1" source="8" target="19"><mxGeometry relative="1" as="geometry"><mxPoint x="235" y="330" as="sourcePoint"/><mxPoint x="305" y="260" as="targetPoint"/></mxGeometry></mxCell><mxCell id="26" style="rounded=0;orthogonalLoop=1;jettySize=auto;html=1;exitX=1;exitY=0.5;exitDx=0;exitDy=0;entryX=0;entryY=0.5;entryDx=0;entryDy=0;endArrow=classic;endFill=1;targetPerimeterSpacing=0;sourcePerimeterSpacing=0;jumpStyle=none;endSize=6;jumpSize=6;dashed=1;" edge="1" parent="1" source="18" target="24"><mxGeometry relative="1" as="geometry"><mxPoint x="280" y="260" as="sourcePoint"/><mxPoint x="350" y="260" as="targetPoint"/></mxGeometry></mxCell><mxCell id="27" style="rounded=0;orthogonalLoop=1;jettySize=auto;html=1;exitX=1;exitY=0.5;exitDx=0;exitDy=0;entryX=0;entryY=0.5;entryDx=0;entryDy=0;endArrow=classic;endFill=1;targetPerimeterSpacing=0;sourcePerimeterSpacing=0;jumpStyle=none;endSize=6;jumpSize=6;dashed=1;" edge="1" parent="1" source="19" target="9"><mxGeometry relative="1" as="geometry"><mxPoint x="280" y="260" as="sourcePoint"/><mxPoint x="350" y="260" as="targetPoint"/></mxGeometry></mxCell><mxCell id="28" style="rounded=0;orthogonalLoop=1;jettySize=auto;html=1;entryX=0;entryY=0.5;entryDx=0;entryDy=0;endArrow=classic;endFill=1;targetPerimeterSpacing=0;sourcePerimeterSpacing=0;jumpStyle=none;endSize=6;jumpSize=6;dashed=1;" edge="1" parent="1" source="19" target="16"><mxGeometry relative="1" as="geometry"><mxPoint x="450" y="340" as="sourcePoint"/><mxPoint x="520" y="260" as="targetPoint"/></mxGeometry></mxCell><mxCell id="29" style="rounded=0;orthogonalLoop=1;jettySize=auto;html=1;entryX=0;entryY=0.5;entryDx=0;entryDy=0;endArrow=classic;endFill=1;targetPerimeterSpacing=0;sourcePerimeterSpacing=0;jumpStyle=none;endSize=6;jumpSize=6;dashed=1;exitX=1;exitY=0.5;exitDx=0;exitDy=0;" edge="1" parent="1" source="19" target="17"><mxGeometry relative="1" as="geometry"><mxPoint x="470" y="260" as="sourcePoint"/><mxPoint x="540" y="260" as="targetPoint"/></mxGeometry></mxCell><mxCell id="30" style="rounded=0;orthogonalLoop=1;jettySize=auto;html=1;entryX=0;entryY=0.5;entryDx=0;entryDy=0;endArrow=classic;endFill=1;targetPerimeterSpacing=0;sourcePerimeterSpacing=0;jumpStyle=none;endSize=6;jumpSize=6;dashed=1;exitX=1;exitY=0.5;exitDx=0;exitDy=0;" edge="1" parent="1" source="19" target="23"><mxGeometry relative="1" as="geometry"><mxPoint x="470" y="260" as="sourcePoint"/><mxPoint x="540" y="340" as="targetPoint"/></mxGeometry></mxCell></root></mxGraphModel></diagram></mxfile>